<mxfile host="app.diagrams.net" modified="2023-09-10T01:16:25.274Z" agent="Mozilla/5.0 (Windows NT 10.0; Win64; x64) AppleWebKit/537.36 (KHTML, like Gecko) Chrome/116.0.0.0 Safari/537.36 Edg/116.0.1938.76" etag="tcsZSXwu7XDH1QyglD33" version="21.7.4" type="github">
  <diagram name="Página-1" id="tRHazPzp7WcS6yvneh5-">
    <mxGraphModel dx="1678" dy="2102" grid="1" gridSize="10" guides="1" tooltips="1" connect="1" arrows="1" fold="1" page="1" pageScale="1" pageWidth="827" pageHeight="1169" math="0" shadow="0">
      <root>
        <mxCell id="0" />
        <mxCell id="1" parent="0" />
        <mxCell id="VWENj13sZtxWaAfj4Sac-19" value="" style="group" vertex="1" connectable="0" parent="1">
          <mxGeometry x="30" y="-5" width="1500" height="1235" as="geometry" />
        </mxCell>
        <mxCell id="VWENj13sZtxWaAfj4Sac-1" value="GESTORES DE BASE DE DATOS&amp;nbsp;" style="rounded=0;whiteSpace=wrap;html=1;" vertex="1" parent="VWENj13sZtxWaAfj4Sac-19">
          <mxGeometry y="75" width="120" height="60" as="geometry" />
        </mxCell>
        <mxCell id="VWENj13sZtxWaAfj4Sac-2" value="" style="endArrow=classic;html=1;rounded=0;exitX=1;exitY=0.5;exitDx=0;exitDy=0;entryX=0;entryY=0.5;entryDx=0;entryDy=0;" edge="1" parent="VWENj13sZtxWaAfj4Sac-19" source="VWENj13sZtxWaAfj4Sac-1" target="VWENj13sZtxWaAfj4Sac-3">
          <mxGeometry width="50" height="50" relative="1" as="geometry">
            <mxPoint x="140" y="385" as="sourcePoint" />
            <mxPoint x="220" y="375" as="targetPoint" />
          </mxGeometry>
        </mxCell>
        <mxCell id="VWENj13sZtxWaAfj4Sac-3" value="&lt;h1&gt;MySql&lt;/h1&gt;&lt;p&gt;MySQL es el sistema de gestión de bases de datos relacional más extendido en la actualidad al estar basada en código abierto. Desarrollado originalmente por MySQL AB, fue adquirida por Sun MicroSystems en 2008 y esta su vez comprada por Oracle Corporation en 2010, la cual ya era dueña de un motor propio InnoDB para MySQ&lt;br&gt;&lt;/p&gt;" style="text;html=1;strokeColor=none;fillColor=none;spacing=5;spacingTop=-20;whiteSpace=wrap;overflow=hidden;rounded=0;" vertex="1" parent="VWENj13sZtxWaAfj4Sac-19">
          <mxGeometry x="220" y="45" width="410" height="120" as="geometry" />
        </mxCell>
        <mxCell id="VWENj13sZtxWaAfj4Sac-4" value="&lt;h1&gt;&amp;nbsp;ventajas y desventajas de MySql&lt;/h1&gt;&lt;ul&gt;&lt;li&gt;Es veloz al realizar operaciones, y garantiza un buen rendimiento de las aplicaciones.&lt;/li&gt;&lt;li&gt;&lt;span class=&quot;OYPEnA text-decoration-none text-strikethrough-none&quot;&gt;Es multiplataforma, es decir que soporta sistemas operáticos como Linux, Solaris, Windows, etc.&lt;/span&gt;&lt;/li&gt;&lt;li&gt;&lt;span class=&quot;OYPEnA text-decoration-none text-strikethrough-none&quot;&gt;Es fácil de instalar y configurar&lt;br&gt;&lt;br&gt;&lt;/span&gt;&lt;/li&gt;&lt;li&gt; &lt;span class=&quot;OYPEnA text-decoration-none text-strikethrough-none&quot;&gt;&lt;font color=&quot;#f20707&quot;&gt;Varias de las utilidades de MySQL no están documentadas.&lt;/font&gt;&lt;/span&gt;&lt;/li&gt;&lt;li&gt;&lt;span class=&quot;OYPEnA text-decoration-none text-strikethrough-none&quot;&gt;&lt;font color=&quot;#f20707&quot;&gt;No es del todo intuitivo, en comparación con otros programas.&lt;/font&gt;&lt;/span&gt;&lt;/li&gt;&lt;li&gt;&lt;span class=&quot;OYPEnA text-decoration-none text-strikethrough-none&quot;&gt;&lt;font color=&quot;#f20707&quot;&gt;No maneja de manera tan eficiente una base de datos con un tamaño muy grande.&lt;/font&gt;&lt;/span&gt;&lt;/li&gt;&lt;/ul&gt;" style="text;html=1;strokeColor=none;fillColor=none;spacing=5;spacingTop=-20;whiteSpace=wrap;overflow=hidden;rounded=0;" vertex="1" parent="VWENj13sZtxWaAfj4Sac-19">
          <mxGeometry x="701" width="510" height="210" as="geometry" />
        </mxCell>
        <mxCell id="VWENj13sZtxWaAfj4Sac-5" value="" style="endArrow=classic;html=1;rounded=0;entryX=0;entryY=0.5;entryDx=0;entryDy=0;exitX=1;exitY=0.5;exitDx=0;exitDy=0;" edge="1" parent="VWENj13sZtxWaAfj4Sac-19" source="VWENj13sZtxWaAfj4Sac-3" target="VWENj13sZtxWaAfj4Sac-4">
          <mxGeometry width="50" height="50" relative="1" as="geometry">
            <mxPoint x="360" y="315" as="sourcePoint" />
            <mxPoint x="410" y="265" as="targetPoint" />
          </mxGeometry>
        </mxCell>
        <mxCell id="VWENj13sZtxWaAfj4Sac-6" value="" style="endArrow=classic;html=1;rounded=0;exitX=1;exitY=1;exitDx=0;exitDy=0;entryX=0.24;entryY=-0.05;entryDx=0;entryDy=0;entryPerimeter=0;" edge="1" parent="VWENj13sZtxWaAfj4Sac-19" source="VWENj13sZtxWaAfj4Sac-1" target="VWENj13sZtxWaAfj4Sac-7">
          <mxGeometry width="50" height="50" relative="1" as="geometry">
            <mxPoint x="580" y="315" as="sourcePoint" />
            <mxPoint x="210" y="245" as="targetPoint" />
          </mxGeometry>
        </mxCell>
        <mxCell id="VWENj13sZtxWaAfj4Sac-7" value="&lt;h1&gt;PostgreSql&lt;/h1&gt;&lt;p&gt;Una característica destacada de PostgreSQL es su capacidad para manejar alta concurrencia. Gracias a su método de control de concurrencia multiversión (MVCC), puede ofrecer transacciones consistentes en un rendimiento óptimo, incluso en entornos con múltiples usuarios concurrentes.&lt;br&gt;&lt;/p&gt;" style="text;html=1;strokeColor=none;fillColor=none;spacing=5;spacingTop=-20;whiteSpace=wrap;overflow=hidden;rounded=0;" vertex="1" parent="VWENj13sZtxWaAfj4Sac-19">
          <mxGeometry x="90" y="225" width="260" height="120" as="geometry" />
        </mxCell>
        <mxCell id="VWENj13sZtxWaAfj4Sac-8" value="&lt;h1&gt;&amp;nbsp;ventajas y desventajas de PostgreSql&lt;/h1&gt;&lt;ul&gt;&lt;li style=&quot;box-sizing: border-box; list-style-type: disc; margin-bottom: 20px;&quot;&gt;Instalación ilimitada y gratuita: Podemos instalarlo en todos los equipos que queramos. Independientemente de la plataforma y la arquitectura que usemos, PostgreSQL está disponible para los diferentes SO, Unix, Linux y Windows, en 32 y 64 bits. Ésto hace de PostgreSQL un&amp;nbsp;&lt;span style=&quot;box-sizing: border-box; font-weight: 700;&quot;&gt;s&lt;/span&gt;&lt;span style=&quot;box-sizing: border-box; font-weight: 700;&quot;&gt;istema&amp;nbsp;multiplataforma&lt;/span&gt;&amp;nbsp;y también hace que sea más rentable con instalaciones a gran escala.&lt;/li&gt;&lt;li style=&quot;box-sizing: border-box; list-style-type: disc; margin-bottom: 20px;&quot;&gt;&lt;span style=&quot;box-sizing: border-box; font-weight: 700;&quot;&gt;Gran escalabilidad&lt;/span&gt;: Nos permite configurar PostgreSQL en cada equipo según el hardware. Por lo que es&amp;nbsp;&lt;span style=&quot;box-sizing: border-box; font-weight: 700;&quot;&gt;capaz de ajustarse al número de CPU y a la cantidad de memoria disponible de forma óptima&lt;/span&gt;. Con ello logramos una mayor cantidad de peticiones simultáneas a la base de datos de forma correcta.&lt;/li&gt;&lt;li style=&quot;box-sizing: border-box; list-style-type: disc; margin-bottom: 20px;&quot;&gt;&lt;span style=&quot;box-sizing: border-box; font-weight: 700;&quot;&gt;Estabilidad y confiabilidad&lt;/span&gt;: Tiene más de 20 años de desarrollo activo y en&amp;nbsp;constante mejora.&amp;nbsp;&lt;span style=&quot;box-sizing: border-box; font-weight: 700;&quot;&gt;No se han presentado nunca caídas de la base de datos&lt;/span&gt;. Ésto es debido a su capacidad de establecer un&amp;nbsp;&lt;a style=&quot;box-sizing: border-box; background-color: initial; transition: all 0.1s ease-in-out 0s; color: rgb(0, 152, 170); text-decoration-line: none; font-weight: 600;&quot; rel=&quot;noopener noreferrer&quot; target=&quot;_blank&quot; href=&quot;https://todopostgresql.com/alta-disponibilidad-postgresql/&quot;&gt;entorno de Alta disponibilidad&lt;/a&gt;&amp;nbsp;y gracias a&amp;nbsp;&lt;span style=&quot;box-sizing: border-box; font-weight: 700;&quot;&gt;Hot-Standby&lt;/span&gt;, que permite que los clientes puedan realizar consultas de solo lectura mientras que los servidores están en modo de recuperación o espera. Así podemos hacer tareas de mantenimiento o recuperación sin bloquear completamente el sistema.&lt;/li&gt;&lt;li&gt;&lt;font color=&quot;#eb0a0a&quot;&gt;Desventajas de PostgreSQL&lt;br&gt;&lt;br&gt;&lt;/font&gt;&lt;/li&gt;&lt;li&gt;&lt;font color=&quot;#eb0a0a&quot;&gt;Es relativamente lento en inserciones y actualizaciones en bases de datos pequeñas, PostgreSQL está diseñado para ambientes de alto volumen. Ésto hace que la velocidad de respuesta pueda parecer lenta en comparación con bases de datos de pequeño tamaño.&lt;br&gt;&lt;br&gt;&lt;/font&gt;&lt;/li&gt;&lt;li&gt;&lt;font color=&quot;#eb0a0a&quot;&gt;Soporte oficial: No cuenta con un soporte en línea o telefónico. PostgreSQL cuenta con foros oficiales donde los usuarios pueden exponer sus dudas que responden otros usuarios de la comunidad. También, disponemos soporte empresarial como EnterpriseDB o Todo PostgreSQL. Cabe resaltar que la comunidad de usuarios PostgreSQL es una de las más activas en el mercado.&lt;br&gt;&lt;br&gt;&lt;/font&gt;&lt;/li&gt;&lt;li&gt;&lt;font color=&quot;#eb0a0a&quot;&gt;La sintaxis de algunos de sus comandos o sentencias puede llegar a no ser intuitiva si no tienes un nivel medio de conocimientos en lenguaje SQL.&lt;/font&gt;&lt;/li&gt;&lt;/ul&gt;" style="text;html=1;strokeColor=none;fillColor=none;spacing=5;spacingTop=-20;whiteSpace=wrap;overflow=hidden;rounded=0;" vertex="1" parent="VWENj13sZtxWaAfj4Sac-19">
          <mxGeometry x="480" y="255" width="990" height="380" as="geometry" />
        </mxCell>
        <mxCell id="VWENj13sZtxWaAfj4Sac-10" value="" style="endArrow=classic;html=1;rounded=0;exitX=1;exitY=0.5;exitDx=0;exitDy=0;" edge="1" parent="VWENj13sZtxWaAfj4Sac-19" source="VWENj13sZtxWaAfj4Sac-7" target="VWENj13sZtxWaAfj4Sac-8">
          <mxGeometry width="50" height="50" relative="1" as="geometry">
            <mxPoint x="740" y="555" as="sourcePoint" />
            <mxPoint x="460" y="285" as="targetPoint" />
          </mxGeometry>
        </mxCell>
        <mxCell id="VWENj13sZtxWaAfj4Sac-12" value="" style="endArrow=classic;html=1;rounded=0;exitX=0;exitY=1;exitDx=0;exitDy=0;" edge="1" parent="VWENj13sZtxWaAfj4Sac-19" source="VWENj13sZtxWaAfj4Sac-1">
          <mxGeometry width="50" height="50" relative="1" as="geometry">
            <mxPoint x="530" y="555" as="sourcePoint" />
            <mxPoint x="70" y="475" as="targetPoint" />
          </mxGeometry>
        </mxCell>
        <mxCell id="VWENj13sZtxWaAfj4Sac-13" value="&lt;h1&gt;OracleSql&lt;/h1&gt;&lt;p&gt;Oracle SQL Developer es una interfaz gráfica de usuario gratuita que permite a los usuarios y administradores de bases de datos realizar sus tareas con menos clics y pulsaciones de teclas. SQL Developer es una herramienta de productividad cuyo objetivo principal es ayudar al usuario final a ahorrar tiempo y maximizar el retorno de la inversión en el paquete de tecnología de Oracle Database.&lt;/p&gt;&lt;p&gt;&lt;br&gt;&lt;/p&gt;&lt;p&gt;SQL Developer admite Oracle Database 10g, 11g y 12c, y se ejecuta en cualquier sistema operativo compatible con Java.&lt;/p&gt;" style="text;html=1;strokeColor=none;fillColor=none;spacing=5;spacingTop=-20;whiteSpace=wrap;overflow=hidden;rounded=0;" vertex="1" parent="VWENj13sZtxWaAfj4Sac-19">
          <mxGeometry x="70" y="470" width="270" height="295" as="geometry" />
        </mxCell>
        <mxCell id="VWENj13sZtxWaAfj4Sac-14" value="" style="endArrow=classic;html=1;rounded=0;exitX=1;exitY=0.75;exitDx=0;exitDy=0;" edge="1" parent="VWENj13sZtxWaAfj4Sac-19" source="VWENj13sZtxWaAfj4Sac-13">
          <mxGeometry width="50" height="50" relative="1" as="geometry">
            <mxPoint x="310" y="805" as="sourcePoint" />
            <mxPoint x="470" y="845" as="targetPoint" />
          </mxGeometry>
        </mxCell>
        <mxCell id="VWENj13sZtxWaAfj4Sac-15" value="&lt;h1&gt;&amp;nbsp;ventajas y desventajas de OracleSql&lt;/h1&gt;&lt;ul&gt;&lt;li style=&quot;box-sizing: border-box; list-style-type: disc; margin-bottom: 20px;&quot;&gt;Oracle es el motor de base de datos objeto-relacional más usado a nivel mundial.&lt;/li&gt;&lt;li style=&quot;box-sizing: border-box; list-style-type: disc; margin-bottom: 20px;&quot;&gt;Puede ejecutarse en todas las plataformas, desde una Pc hasta un supercomputador.&lt;/li&gt;&lt;li style=&quot;box-sizing: border-box; list-style-type: disc; margin-bottom: 20px;&quot;&gt;Oracle soporta todas las funciones que se esperan de un servidor &quot;serio&quot;: un lenguaje de diseño de bases de datos muy completo (PL/SQL) que permite implementar diseños &quot;activos&quot;, con triggers y procedimientos almacenados, con una integridad referencial declarativa bastante potente.&lt;/li&gt;&lt;li style=&quot;box-sizing: border-box; list-style-type: disc; margin-bottom: 20px;&quot;&gt;Permite el uso de particiones para la mejora de la eficiencia, de replicación e incluso ciertas versiones admiten la administración de bases de datos distribuidas.&lt;/li&gt;&lt;li style=&quot;box-sizing: border-box; list-style-type: disc; margin-bottom: 20px;&quot;&gt;El software del servidor puede ejecutarse en multitud de sistemas operativos.&lt;/li&gt;&lt;li style=&quot;box-sizing: border-box; list-style-type: disc; margin-bottom: 20px;&quot;&gt;Existe incluso una versión personal para Windows 9x, lo cual es un punto a favor para los desarrolladores que se llevan trabajo a casa.&lt;/li&gt;&lt;li style=&quot;box-sizing: border-box; list-style-type: disc; margin-bottom: 20px;&quot;&gt;Oracle es la base de datos con más orientación hacía INTERNET.&lt;br&gt;&lt;br&gt;&lt;font color=&quot;#e7131d&quot;&gt;&lt;br&gt;&lt;/font&gt;&lt;/li&gt;&lt;li style=&quot;box-sizing: border-box; list-style-type: disc; margin-bottom: 20px;&quot;&gt;&lt;font color=&quot;#e7131d&quot;&gt;Las versiones más recientes de Oracle son la 11g, 10g, 9g, 8g, desde el lanzamiento original de la 8 se sucedieron varias versiones con correcciones, hasta alcanzar la estabilidad en la 8.0.3. El motivo de tantos fallos fue, al parecer, la remodelación del sistema de almacenamiento por causa de la introducción de extensiones orientadas a objetos.&lt;/font&gt;&lt;/li&gt;&lt;li style=&quot;box-sizing: border-box; list-style-type: disc; margin-bottom: 20px;&quot;&gt;&lt;font color=&quot;#e7131d&quot;&gt;El mayor inconveniente de Oracle es quizás su precio. Incluso las licencias de Personal Oracle son excesivamente caras, en mi opinión. Otro problema es la necesidad de ajustes. Un error frecuente consiste en pensar que basta instalar el Oracle en un servidor y enchufar directamente las aplicaciones clientes. Un Oracle mal configurado puede ser desesperantemente lento.&lt;/font&gt;&lt;/li&gt;&lt;li style=&quot;box-sizing: border-box; list-style-type: disc; margin-bottom: 20px;&quot;&gt;&lt;font color=&quot;#e7131d&quot;&gt;&amp;nbsp;También es elevado el coste de la información, y sólo últimamente han comenzado a aparecer buenos libros sobre asuntos técnicos distintos de la simple instalación y administración.&lt;/font&gt;&lt;/li&gt;&lt;/ul&gt;" style="text;html=1;strokeColor=none;fillColor=none;spacing=5;spacingTop=-20;whiteSpace=wrap;overflow=hidden;rounded=0;" vertex="1" parent="VWENj13sZtxWaAfj4Sac-19">
          <mxGeometry x="480" y="735" width="1020" height="500" as="geometry" />
        </mxCell>
      </root>
    </mxGraphModel>
  </diagram>
</mxfile>
